<?xml version="1.0" encoding="UTF-8" standalone="no"?>
<!-- Created with Inkscape (http://www.inkscape.org/) -->

<svg
   xmlns:dc="http://purl.org/dc/elements/1.1/"
   xmlns:cc="http://creativecommons.org/ns#"
   xmlns:rdf="http://www.w3.org/1999/02/22-rdf-syntax-ns#"
   xmlns:svg="http://www.w3.org/2000/svg"
   xmlns="http://www.w3.org/2000/svg"
   xmlns:sodipodi="http://sodipodi.sourceforge.net/DTD/sodipodi-0.dtd"
   xmlns:inkscape="http://www.inkscape.org/namespaces/inkscape"
   width="744.09448819"
   height="1052.3622047"
   id="svg14823"
   version="1.1"
   inkscape:version="0.48.3.1 r9886"
   sodipodi:docname="catboard2-roof2.svg">
  <defs
     id="defs14825" />
  <sodipodi:namedview
     id="base"
     pagecolor="#ffffff"
     bordercolor="#666666"
     borderopacity="1.0"
     inkscape:pageopacity="0.0"
     inkscape:pageshadow="2"
     inkscape:zoom="1.979899"
     inkscape:cx="50.136469"
     inkscape:cy="958.05382"
     inkscape:document-units="px"
     inkscape:current-layer="layer1"
     showgrid="false"
     inkscape:window-width="1366"
     inkscape:window-height="710"
     inkscape:window-x="0"
     inkscape:window-y="0"
     inkscape:window-maximized="1"
     showguides="true"
     inkscape:guide-bbox="true"
     inkscape:snap-global="false">
    <sodipodi:guide
       orientation="0,1"
       position="205.06097,960.65507"
       id="guide3421" />
    <sodipodi:guide
       orientation="1,0"
       position="59.599,986.91904"
       id="guide3423" />
    <sodipodi:guide
       orientation="1,0"
       position="163.64471,1062.6805"
       id="guide3425" />
    <sodipodi:guide
       orientation="0,1"
       position="123.23861,1014.6982"
       id="guide3448" />
    <sodipodi:guide
       orientation="0,1"
       position="133.34014,862.1652"
       id="guide3450" />
  </sodipodi:namedview>
  <metadata
     id="metadata14828">
    <rdf:RDF>
      <cc:Work
         rdf:about="">
        <dc:format>image/svg+xml</dc:format>
        <dc:type
           rdf:resource="http://purl.org/dc/dcmitype/StillImage" />
        <dc:title></dc:title>
      </cc:Work>
    </rdf:RDF>
  </metadata>
  <g
     inkscape:label="Layer 1"
     inkscape:groupmode="layer"
     id="layer1">
    <path
       inkscape:connector-curvature="0"
       style="fill:#ffffff;fill-opacity:1;stroke:#000000;stroke-width:1;stroke-miterlimit:4;stroke-opacity:1;stroke-dasharray:none;display:inline"
       d="m 40.75815,30.5451 c 0,0 3.2678,24.4055 5.4376,41.7812 -22.0955,32.6059 -12.9858,82.3305 20.3124,103.9063 12.849,8.9644 28.4869,13.4897 44.4012,13.7515 15.9143,0.2618 32.1299,-4.2883 45.3801,-13.5328 33.2982,-21.5757 42.408,-71.3004 20.3125,-103.9062 2.1698,-17.3757 5.4375,-41.7813 5.4375,-41.7813 0,0 -19.4753,7.5598 -38.0625,14 -9.5456,-4.5703 -21.0929,-6.5666 -32.0717,-6.7653 -10.9787,-0.1986 -23.1239,1.7776 -33.0845,6.5466 -18.587,-6.4402 -38.0626,-14 -38.0626,-14 z"
       id="path4354-4-1-75"
       sodipodi:nodetypes="ccccccccccc" />
    <g
       id="g3349"
       transform="translate(0.9214049,0.11729538)">
      <g
         transform="matrix(0.80925953,0.11389255,-0.09277229,0.99349307,-1032.1993,1157.5585)"
         id="g9410"
         style="fill:#000000;stroke:none;display:inline"
         inkscape:export-filename="/home/ibnteo/sites/ibnteo.klava.org/catboard/pcb.png"
         inkscape:export-xdpi="76.639999"
         inkscape:export-ydpi="76.639999">
        <path
           inkscape:export-ydpi="76.75"
           inkscape:export-xdpi="76.75"
           inkscape:export-filename="/home/ibnteo/sites/ibnteo.klava.org/keyboard/catboard2-pcb-notext.png"
           transform="matrix(1.0476124,-0.0263173,-0.02429567,0.75798955,-37.335558,-167.03875)"
           d="m 1195.364,-1247.656 c 0,1.2692 -0.9498,2.2981 -2.1213,2.2981 -1.1716,0 -2.1213,-1.0289 -2.1213,-2.2981 0,-1.2692 0.9497,-2.2981 2.1213,-2.2981 1.1715,0 2.1213,1.0289 2.1213,2.2981 z"
           sodipodi:ry="2.2980969"
           sodipodi:rx="2.1213202"
           sodipodi:cy="-1247.656"
           sodipodi:cx="1193.2427"
           id="path9412"
           style="fill:#000000;fill-opacity:1;stroke:none;display:inline"
           sodipodi:type="arc" />
        <path
           inkscape:export-ydpi="76.75"
           inkscape:export-xdpi="76.75"
           inkscape:export-filename="/home/ibnteo/sites/ibnteo.klava.org/keyboard/catboard2-pcb-notext.png"
           transform="matrix(1.0476124,-0.0263173,-0.02429567,0.75798955,-38.457658,-175.72628)"
           d="m 1195.364,-1247.656 c 0,1.2692 -0.9498,2.2981 -2.1213,2.2981 -1.1716,0 -2.1213,-1.0289 -2.1213,-2.2981 0,-1.2692 0.9497,-2.2981 2.1213,-2.2981 1.1715,0 2.1213,1.0289 2.1213,2.2981 z"
           sodipodi:ry="2.2980969"
           sodipodi:rx="2.1213202"
           sodipodi:cy="-1247.656"
           sodipodi:cx="1193.2427"
           id="path9414"
           style="fill:#000000;fill-opacity:1;stroke:none;display:inline"
           sodipodi:type="arc" />
        <path
           inkscape:export-ydpi="76.75"
           inkscape:export-xdpi="76.75"
           inkscape:export-filename="/home/ibnteo/sites/ibnteo.klava.org/keyboard/catboard2-pcb-notext.png"
           transform="matrix(1.0476124,-0.0263173,-0.02429567,0.75798955,-39.491841,-184.61605)"
           d="m 1195.364,-1247.656 c 0,1.2692 -0.9498,2.2981 -2.1213,2.2981 -1.1716,0 -2.1213,-1.0289 -2.1213,-2.2981 0,-1.2692 0.9497,-2.2981 2.1213,-2.2981 1.1715,0 2.1213,1.0289 2.1213,2.2981 z"
           sodipodi:ry="2.2980969"
           sodipodi:rx="2.1213202"
           sodipodi:cy="-1247.656"
           sodipodi:cx="1193.2427"
           id="path9416"
           style="fill:#000000;fill-opacity:1;stroke:none;display:inline"
           sodipodi:type="arc" />
        <path
           inkscape:export-ydpi="76.75"
           inkscape:export-xdpi="76.75"
           inkscape:export-filename="/home/ibnteo/sites/ibnteo.klava.org/keyboard/catboard2-pcb-notext.png"
           transform="matrix(1.0476124,-0.0263173,-0.02429567,0.75798955,-40.477118,-193.45473)"
           d="m 1195.364,-1247.656 c 0,1.2692 -0.9498,2.2981 -2.1213,2.2981 -1.1716,0 -2.1213,-1.0289 -2.1213,-2.2981 0,-1.2692 0.9497,-2.2981 2.1213,-2.2981 1.1715,0 2.1213,1.0289 2.1213,2.2981 z"
           sodipodi:ry="2.2980969"
           sodipodi:rx="2.1213202"
           sodipodi:cy="-1247.656"
           sodipodi:cx="1193.2427"
           id="path9418"
           style="fill:#000000;fill-opacity:1;stroke:none;display:inline"
           sodipodi:type="arc" />
        <path
           inkscape:export-ydpi="76.75"
           inkscape:export-xdpi="76.75"
           inkscape:export-filename="/home/ibnteo/sites/ibnteo.klava.org/keyboard/catboard2-pcb-notext.png"
           transform="matrix(1.0476124,-0.0263173,-0.02429567,0.75798955,-41.371644,-202.31703)"
           d="m 1195.364,-1247.656 c 0,1.2692 -0.9498,2.2981 -2.1213,2.2981 -1.1716,0 -2.1213,-1.0289 -2.1213,-2.2981 0,-1.2692 0.9497,-2.2981 2.1213,-2.2981 1.1715,0 2.1213,1.0289 2.1213,2.2981 z"
           sodipodi:ry="2.2980969"
           sodipodi:rx="2.1213202"
           sodipodi:cy="-1247.656"
           sodipodi:cx="1193.2427"
           id="path9420"
           style="fill:#000000;fill-opacity:1;stroke:none;display:inline"
           sodipodi:type="arc" />
        <path
           inkscape:export-ydpi="76.75"
           inkscape:export-xdpi="76.75"
           inkscape:export-filename="/home/ibnteo/sites/ibnteo.klava.org/keyboard/catboard2-pcb-notext.png"
           transform="matrix(1.0476124,-0.0263173,-0.02429567,0.75798955,-42.468464,-210.99922)"
           d="m 1195.364,-1247.656 c 0,1.2692 -0.9498,2.2981 -2.1213,2.2981 -1.1716,0 -2.1213,-1.0289 -2.1213,-2.2981 0,-1.2692 0.9497,-2.2981 2.1213,-2.2981 1.1715,0 2.1213,1.0289 2.1213,2.2981 z"
           sodipodi:ry="2.2980969"
           sodipodi:rx="2.1213202"
           sodipodi:cy="-1247.656"
           sodipodi:cx="1193.2427"
           id="path9422"
           style="fill:#000000;fill-opacity:1;stroke:none;display:inline"
           sodipodi:type="arc" />
        <path
           inkscape:export-ydpi="76.75"
           inkscape:export-xdpi="76.75"
           inkscape:export-filename="/home/ibnteo/sites/ibnteo.klava.org/keyboard/catboard2-pcb-notext.png"
           transform="matrix(1.0476124,-0.0263173,-0.02429567,0.75798955,-43.455916,-220.02435)"
           d="m 1195.364,-1247.656 c 0,1.2692 -0.9498,2.2981 -2.1213,2.2981 -1.1716,0 -2.1213,-1.0289 -2.1213,-2.2981 0,-1.2692 0.9497,-2.2981 2.1213,-2.2981 1.1715,0 2.1213,1.0289 2.1213,2.2981 z"
           sodipodi:ry="2.2980969"
           sodipodi:rx="2.1213202"
           sodipodi:cy="-1247.656"
           sodipodi:cx="1193.2427"
           id="path9424"
           style="fill:#000000;fill-opacity:1;stroke:none;display:inline"
           sodipodi:type="arc" />
        <path
           inkscape:export-ydpi="76.75"
           inkscape:export-xdpi="76.75"
           inkscape:export-filename="/home/ibnteo/sites/ibnteo.klava.org/keyboard/catboard2-pcb-notext.png"
           transform="matrix(1.0476124,-0.0263173,-0.02429567,0.75798955,-44.431016,-228.83004)"
           d="m 1195.364,-1247.656 c 0,1.2692 -0.9498,2.2981 -2.1213,2.2981 -1.1716,0 -2.1213,-1.0289 -2.1213,-2.2981 0,-1.2692 0.9497,-2.2981 2.1213,-2.2981 1.1715,0 2.1213,1.0289 2.1213,2.2981 z"
           sodipodi:ry="2.2980969"
           sodipodi:rx="2.1213202"
           sodipodi:cy="-1247.656"
           sodipodi:cx="1193.2427"
           id="path9426"
           style="fill:#000000;fill-opacity:1;stroke:none;display:inline"
           sodipodi:type="arc" />
        <path
           inkscape:export-ydpi="76.75"
           inkscape:export-xdpi="76.75"
           inkscape:export-filename="/home/ibnteo/sites/ibnteo.klava.org/keyboard/catboard2-pcb-notext.png"
           transform="matrix(1.0476124,-0.0263173,-0.02429567,0.75798955,-45.518125,-237.74292)"
           d="m 1195.364,-1247.656 c 0,1.2692 -0.9498,2.2981 -2.1213,2.2981 -1.1716,0 -2.1213,-1.0289 -2.1213,-2.2981 0,-1.2692 0.9497,-2.2981 2.1213,-2.2981 1.1715,0 2.1213,1.0289 2.1213,2.2981 z"
           sodipodi:ry="2.2980969"
           sodipodi:rx="2.1213202"
           sodipodi:cy="-1247.656"
           sodipodi:cx="1193.2427"
           id="path9428"
           style="fill:#000000;fill-opacity:1;stroke:none;display:inline"
           sodipodi:type="arc" />
        <path
           inkscape:export-ydpi="76.75"
           inkscape:export-xdpi="76.75"
           inkscape:export-filename="/home/ibnteo/sites/ibnteo.klava.org/keyboard/catboard2-pcb-notext.png"
           transform="matrix(1.0476124,-0.0263173,-0.02429567,0.75798955,-46.448822,-246.53825)"
           d="m 1195.364,-1247.656 c 0,1.2692 -0.9498,2.2981 -2.1213,2.2981 -1.1716,0 -2.1213,-1.0289 -2.1213,-2.2981 0,-1.2692 0.9497,-2.2981 2.1213,-2.2981 1.1715,0 2.1213,1.0289 2.1213,2.2981 z"
           sodipodi:ry="2.2980969"
           sodipodi:rx="2.1213202"
           sodipodi:cy="-1247.656"
           sodipodi:cx="1193.2427"
           id="path9430"
           style="fill:#000000;fill-opacity:1;stroke:none;display:inline"
           sodipodi:type="arc" />
        <path
           inkscape:export-ydpi="76.75"
           inkscape:export-xdpi="76.75"
           inkscape:export-filename="/home/ibnteo/sites/ibnteo.klava.org/keyboard/catboard2-pcb-notext.png"
           transform="matrix(1.0476124,-0.0263173,-0.02429567,0.75798955,-47.567829,-255.47675)"
           d="m 1195.364,-1247.656 c 0,1.2692 -0.9498,2.2981 -2.1213,2.2981 -1.1716,0 -2.1213,-1.0289 -2.1213,-2.2981 0,-1.2692 0.9497,-2.2981 2.1213,-2.2981 1.1715,0 2.1213,1.0289 2.1213,2.2981 z"
           sodipodi:ry="2.2980969"
           sodipodi:rx="2.1213202"
           sodipodi:cy="-1247.656"
           sodipodi:cx="1193.2427"
           id="path9432"
           style="fill:#000000;fill-opacity:1;stroke:none;display:inline"
           sodipodi:type="arc" />
        <path
           inkscape:export-ydpi="76.75"
           inkscape:export-xdpi="76.75"
           inkscape:export-filename="/home/ibnteo/sites/ibnteo.klava.org/keyboard/catboard2-pcb-notext.png"
           transform="matrix(1.0821412,-0.03028591,-0.02795943,0.7583266,-94.127386,-258.99467)"
           d="m 1195.364,-1247.656 c 0,1.2692 -0.9498,2.2981 -2.1213,2.2981 -1.1716,0 -2.1213,-1.0289 -2.1213,-2.2981 0,-1.2692 0.9497,-2.2981 2.1213,-2.2981 1.1715,0 2.1213,1.0289 2.1213,2.2981 z"
           sodipodi:ry="2.2980969"
           sodipodi:rx="2.1213202"
           sodipodi:cy="-1247.656"
           sodipodi:cx="1193.2427"
           id="path9434"
           style="fill:#000000;fill-opacity:1;stroke:none;display:inline"
           sodipodi:type="arc" />
      </g>
      <g
         transform="matrix(1.0333442,-0.11323795,0.11777131,0.99356789,-1149.3183,1452.8572)"
         id="g9384"
         style="fill:#000000;stroke:none;display:inline"
         inkscape:export-filename="/home/ibnteo/sites/ibnteo.klava.org/catboard/pcb.png"
         inkscape:export-xdpi="76.639999"
         inkscape:export-ydpi="76.639999">
        <path
           inkscape:export-ydpi="76.75"
           inkscape:export-xdpi="76.75"
           inkscape:export-filename="/home/ibnteo/sites/ibnteo.klava.org/keyboard/catboard2-pcb-notext.png"
           transform="matrix(0.81804465,0,0,0.75520433,398.10831,-217.72433)"
           d="m 1195.364,-1247.656 c 0,1.2692 -0.9498,2.2981 -2.1213,2.2981 -1.1716,0 -2.1213,-1.0289 -2.1213,-2.2981 0,-1.2692 0.9497,-2.2981 2.1213,-2.2981 1.1715,0 2.1213,1.0289 2.1213,2.2981 z"
           sodipodi:ry="2.2980969"
           sodipodi:rx="2.1213202"
           sodipodi:cy="-1247.656"
           sodipodi:cx="1193.2427"
           id="path9386"
           style="fill:#000000;fill-opacity:1;stroke:none;display:inline"
           sodipodi:type="arc" />
        <path
           inkscape:export-ydpi="76.75"
           inkscape:export-xdpi="76.75"
           inkscape:export-filename="/home/ibnteo/sites/ibnteo.klava.org/keyboard/catboard2-pcb-notext.png"
           transform="matrix(0.81804465,0,0,0.75520433,407.09416,-297.2791)"
           d="m 1195.364,-1247.656 c 0,1.2692 -0.9498,2.2981 -2.1213,2.2981 -1.1716,0 -2.1213,-1.0289 -2.1213,-2.2981 0,-1.2692 0.9497,-2.2981 2.1213,-2.2981 1.1715,0 2.1213,1.0289 2.1213,2.2981 z"
           sodipodi:ry="2.2980969"
           sodipodi:rx="2.1213202"
           sodipodi:cy="-1247.656"
           sodipodi:cx="1193.2427"
           id="path9388"
           style="fill:#000000;fill-opacity:1;stroke:none;display:inline"
           sodipodi:type="arc" />
        <path
           inkscape:export-ydpi="76.75"
           inkscape:export-xdpi="76.75"
           inkscape:export-filename="/home/ibnteo/sites/ibnteo.klava.org/keyboard/catboard2-pcb-notext.png"
           transform="matrix(0.81804465,0,0,0.75520433,406.16897,-288.47719)"
           d="m 1195.364,-1247.656 c 0,1.2692 -0.9498,2.2981 -2.1213,2.2981 -1.1716,0 -2.1213,-1.0289 -2.1213,-2.2981 0,-1.2692 0.9497,-2.2981 2.1213,-2.2981 1.1715,0 2.1213,1.0289 2.1213,2.2981 z"
           sodipodi:ry="2.2980969"
           sodipodi:rx="2.1213202"
           sodipodi:cy="-1247.656"
           sodipodi:cx="1193.2427"
           id="path9390"
           style="fill:#000000;fill-opacity:1;stroke:none;display:inline"
           sodipodi:type="arc" />
        <path
           inkscape:export-ydpi="76.75"
           inkscape:export-xdpi="76.75"
           inkscape:export-filename="/home/ibnteo/sites/ibnteo.klava.org/keyboard/catboard2-pcb-notext.png"
           transform="matrix(0.81804465,0,0,0.75520433,405.12923,-279.68242)"
           d="m 1195.364,-1247.656 c 0,1.2692 -0.9498,2.2981 -2.1213,2.2981 -1.1716,0 -2.1213,-1.0289 -2.1213,-2.2981 0,-1.2692 0.9497,-2.2981 2.1213,-2.2981 1.1715,0 2.1213,1.0289 2.1213,2.2981 z"
           sodipodi:ry="2.2980969"
           sodipodi:rx="2.1213202"
           sodipodi:cy="-1247.656"
           sodipodi:cx="1193.2427"
           id="path9392"
           style="fill:#000000;fill-opacity:1;stroke:none;display:inline"
           sodipodi:type="arc" />
        <path
           inkscape:export-ydpi="76.75"
           inkscape:export-xdpi="76.75"
           inkscape:export-filename="/home/ibnteo/sites/ibnteo.klava.org/keyboard/catboard2-pcb-notext.png"
           transform="matrix(0.81804465,0,0,0.75520433,404.12202,-270.66942)"
           d="m 1195.364,-1247.656 c 0,1.2692 -0.9498,2.2981 -2.1213,2.2981 -1.1716,0 -2.1213,-1.0289 -2.1213,-2.2981 0,-1.2692 0.9497,-2.2981 2.1213,-2.2981 1.1715,0 2.1213,1.0289 2.1213,2.2981 z"
           sodipodi:ry="2.2980969"
           sodipodi:rx="2.1213202"
           sodipodi:cy="-1247.656"
           sodipodi:cx="1193.2427"
           id="path9394"
           style="fill:#000000;fill-opacity:1;stroke:none;display:inline"
           sodipodi:type="arc" />
        <path
           inkscape:export-ydpi="76.75"
           inkscape:export-xdpi="76.75"
           inkscape:export-filename="/home/ibnteo/sites/ibnteo.klava.org/keyboard/catboard2-pcb-notext.png"
           transform="matrix(0.81804465,0,0,0.75520433,403.17694,-261.80813)"
           d="m 1195.364,-1247.656 c 0,1.2692 -0.9498,2.2981 -2.1213,2.2981 -1.1716,0 -2.1213,-1.0289 -2.1213,-2.2981 0,-1.2692 0.9497,-2.2981 2.1213,-2.2981 1.1715,0 2.1213,1.0289 2.1213,2.2981 z"
           sodipodi:ry="2.2980969"
           sodipodi:rx="2.1213202"
           sodipodi:cy="-1247.656"
           sodipodi:cx="1193.2427"
           id="path9396"
           style="fill:#000000;fill-opacity:1;stroke:none;display:inline"
           sodipodi:type="arc" />
        <path
           inkscape:export-ydpi="76.75"
           inkscape:export-xdpi="76.75"
           inkscape:export-filename="/home/ibnteo/sites/ibnteo.klava.org/keyboard/catboard2-pcb-notext.png"
           transform="matrix(0.81804465,0,0,0.75520433,402.11986,-252.93964)"
           d="m 1195.364,-1247.656 c 0,1.2692 -0.9498,2.2981 -2.1213,2.2981 -1.1716,0 -2.1213,-1.0289 -2.1213,-2.2981 0,-1.2692 0.9497,-2.2981 2.1213,-2.2981 1.1715,0 2.1213,1.0289 2.1213,2.2981 z"
           sodipodi:ry="2.2980969"
           sodipodi:rx="2.1213202"
           sodipodi:cy="-1247.656"
           sodipodi:cx="1193.2427"
           id="path9398"
           style="fill:#000000;fill-opacity:1;stroke:none;display:inline"
           sodipodi:type="arc" />
        <path
           inkscape:export-ydpi="76.75"
           inkscape:export-xdpi="76.75"
           inkscape:export-filename="/home/ibnteo/sites/ibnteo.klava.org/keyboard/catboard2-pcb-notext.png"
           transform="matrix(0.81804465,0,0,0.75520433,401.17407,-244.12606)"
           d="m 1195.364,-1247.656 c 0,1.2692 -0.9498,2.2981 -2.1213,2.2981 -1.1716,0 -2.1213,-1.0289 -2.1213,-2.2981 0,-1.2692 0.9497,-2.2981 2.1213,-2.2981 1.1715,0 2.1213,1.0289 2.1213,2.2981 z"
           sodipodi:ry="2.2980969"
           sodipodi:rx="2.1213202"
           sodipodi:cy="-1247.656"
           sodipodi:cx="1193.2427"
           id="path9400"
           style="fill:#000000;fill-opacity:1;stroke:none;display:inline"
           sodipodi:type="arc" />
        <path
           inkscape:export-ydpi="76.75"
           inkscape:export-xdpi="76.75"
           inkscape:export-filename="/home/ibnteo/sites/ibnteo.klava.org/keyboard/catboard2-pcb-notext.png"
           transform="matrix(0.81804465,0,0,0.75520433,400.04256,-235.32261)"
           d="m 1195.364,-1247.656 c 0,1.2692 -0.9498,2.2981 -2.1213,2.2981 -1.1716,0 -2.1213,-1.0289 -2.1213,-2.2981 0,-1.2692 0.9497,-2.2981 2.1213,-2.2981 1.1715,0 2.1213,1.0289 2.1213,2.2981 z"
           sodipodi:ry="2.2980969"
           sodipodi:rx="2.1213202"
           sodipodi:cy="-1247.656"
           sodipodi:cx="1193.2427"
           id="path9402"
           style="fill:#000000;fill-opacity:1;stroke:none;display:inline"
           sodipodi:type="arc" />
        <path
           inkscape:export-ydpi="76.75"
           inkscape:export-xdpi="76.75"
           inkscape:export-filename="/home/ibnteo/sites/ibnteo.klava.org/keyboard/catboard2-pcb-notext.png"
           transform="matrix(0.81804465,0,0,0.75520433,399.07508,-226.48301)"
           d="m 1195.364,-1247.656 c 0,1.2692 -0.9498,2.2981 -2.1213,2.2981 -1.1716,0 -2.1213,-1.0289 -2.1213,-2.2981 0,-1.2692 0.9497,-2.2981 2.1213,-2.2981 1.1715,0 2.1213,1.0289 2.1213,2.2981 z"
           sodipodi:ry="2.2980969"
           sodipodi:rx="2.1213202"
           sodipodi:cy="-1247.656"
           sodipodi:cx="1193.2427"
           id="path9404"
           style="fill:#000000;fill-opacity:1;stroke:none;display:inline"
           sodipodi:type="arc" />
        <path
           inkscape:export-ydpi="76.75"
           inkscape:export-xdpi="76.75"
           inkscape:export-filename="/home/ibnteo/sites/ibnteo.klava.org/keyboard/catboard2-pcb-notext.png"
           transform="matrix(0.81804465,0,0,0.75520433,397.12783,-208.77057)"
           d="m 1195.364,-1247.656 c 0,1.2692 -0.9498,2.2981 -2.1213,2.2981 -1.1716,0 -2.1213,-1.0289 -2.1213,-2.2981 0,-1.2692 0.9497,-2.2981 2.1213,-2.2981 1.1715,0 2.1213,1.0289 2.1213,2.2981 z"
           sodipodi:ry="2.2980969"
           sodipodi:rx="2.1213202"
           sodipodi:cy="-1247.656"
           sodipodi:cx="1193.2427"
           id="path9406"
           style="fill:#000000;fill-opacity:1;stroke:none;display:inline"
           sodipodi:type="arc" />
        <path
           inkscape:export-ydpi="76.75"
           inkscape:export-xdpi="76.75"
           inkscape:export-filename="/home/ibnteo/sites/ibnteo.klava.org/keyboard/catboard2-pcb-notext.png"
           transform="matrix(0.81804465,0,0,0.75520433,396.12261,-200.04031)"
           d="m 1195.364,-1247.656 c 0,1.2692 -0.9498,2.2981 -2.1213,2.2981 -1.1716,0 -2.1213,-1.0289 -2.1213,-2.2981 0,-1.2692 0.9497,-2.2981 2.1213,-2.2981 1.1715,0 2.1213,1.0289 2.1213,2.2981 z"
           sodipodi:ry="2.2980969"
           sodipodi:rx="2.1213202"
           sodipodi:cy="-1247.656"
           sodipodi:cx="1193.2427"
           id="path9408"
           style="fill:#000000;fill-opacity:1;stroke:none;display:inline"
           sodipodi:type="arc" />
      </g>
    </g>
    <rect
       style="fill:#000000;fill-opacity:1;stroke:none"
       id="rect15404"
       width="35.433071"
       height="35.433071"
       x="-89.368332"
       y="36.836472" />
    <path
       style="fill:none;stroke:#000000;stroke-width:1px;stroke-linecap:butt;stroke-linejoin:miter;stroke-opacity:1"
       d="m 51.665884,99.364721 c 7.077223,7.369139 18.700296,2.999279 18.700296,2.999279 0,0 4.307827,-11.457438 -2.999282,-18.700298 C 60.406163,76.76417 49.20475,81.207637 49.20475,81.207637 c 0,0 -4.616087,10.787936 2.461134,18.157084 z"
       id="path3279"
       inkscape:connector-curvature="0"
       sodipodi:nodetypes="zcscz" />
    <path
       sodipodi:nodetypes="zcscz"
       inkscape:connector-curvature="0"
       id="path3427"
       d="m 171.2278,99.364725 c -7.07722,7.369135 -18.7003,2.999275 -18.7003,2.999275 0,0 -4.30782,-11.457438 2.99929,-18.700298 6.96073,-6.899532 18.16214,-2.456065 18.16214,-2.456065 0,0 4.61609,10.787936 -2.46113,18.157088 z"
       style="fill:none;stroke:#000000;stroke-width:1px;stroke-linecap:butt;stroke-linejoin:miter;stroke-opacity:1" />
  </g>
</svg>
