  0
SECTION
  2
HEADER
  9
$ACADVER
  1
AC1014
  9
$HANDSEED
  5
FFFF
  9
$MEASUREMENT
 70
     1
  0
ENDSEC
  0
SECTION
  2
TABLES
  0
TABLE
  2
VPORT
  5
8
330
0
100
AcDbSymbolTable
 70
     4
  0
VPORT
  5
2E
330
8
100
AcDbSymbolTableRecord
100
AcDbViewportTableRecord
  2
*ACTIVE
 70
     0
 10
0.0
 20
0.0
 11
1.0
 21
1.0
 12
210.0
 22
148.5
 13
0.0
 23
0.0
 14
10.0
 24
10.0
 15
10.0
 25
10.0
 16
0.0
 26
0.0
 36
1.0
 17
0.0
 27
0.0
 37
0.0
 40
341.0
 41
1.24
 42
50.0
 43
0.0
 44
0.0
 50
0.0
 51
0.0
 71
     0
 72
   100
 73
     1
 74
     3
 75
     0
 76
     0
 77
     0
 78
     0
  0
ENDTAB
  0
TABLE
  2
LTYPE
  5
5
330
0
100
AcDbSymbolTable
 70
     1
  0
LTYPE
  5
14
330
5
100
AcDbSymbolTableRecord
100
AcDbLinetypeTableRecord
  2
BYBLOCK
 70
     0
  3

 72
    65
 73
     0
 40
0.0
  0
LTYPE
  5
15
330
5
100
AcDbSymbolTableRecord
100
AcDbLinetypeTableRecord
  2
BYLAYER
 70
     0
  3

 72
    65
 73
     0
 40
0.0
  0
LTYPE
  5
16
330
5
100
AcDbSymbolTableRecord
100
AcDbLinetypeTableRecord
  2
CONTINUOUS
 70
     0
  3
Solid line
 72
    65
 73
     0
 40
0.0
  0
ENDTAB
  0
TABLE
  2
LAYER
  5
2
100
AcDbSymbolTable
 70
2
  0
LAYER
  5
50
100
AcDbSymbolTableRecord
100
AcDbLayerTableRecord
  2
0
 70
0
  6
CONTINUOUS
  0
LAYER
  5
51
100
AcDbSymbolTableRecord
100
AcDbLayerTableRecord
  2
Layer_1
 70
0
  6
CONTINUOUS
  0
ENDTAB
  0
TABLE
  2
STYLE
  5
3
330
0
100
AcDbSymbolTable
 70
     1
  0
STYLE
  5
11
330
3
100
AcDbSymbolTableRecord
100
AcDbTextStyleTableRecord
  2
STANDARD
 70
     0
 40
0.0
 41
1.0
 50
0.0
 71
     0
 42
2.5
  3
txt
  4

  0
ENDTAB
  0
TABLE
  2
VIEW
  5
6
330
0
100
AcDbSymbolTable
 70
     0
  0
ENDTAB
  0
TABLE
  2
UCS
  5
7
330
0
100
AcDbSymbolTable
 70
     0
  0
ENDTAB
  0
TABLE
  2
APPID
  5
9
330
0
100
AcDbSymbolTable
 70
     2
  0
APPID
  5
12
330
9
100
AcDbSymbolTableRecord
100
AcDbRegAppTableRecord
  2
ACAD
 70
     0
  0
ENDTAB
  0
TABLE
  2
DIMSTYLE
  5
A
330
0
100
AcDbSymbolTable
 70
     1
  0
DIMSTYLE
105
27
330
A
100
AcDbSymbolTableRecord
100
AcDbDimStyleTableRecord
  2
ISO-25
 70
     0
  3

  4

  5

  6

  7

 40
1.0
 41
2.5
 42
0.625
 43
3.75
 44
1.25
 45
0.0
 46
0.0
 47
0.0
 48
0.0
140
2.5
141
2.5
142
0.0
143
0.03937007874016
144
1.0
145
0.0
146
1.0
147
0.625
 71
     0
 72
     0
 73
     0
 74
     0
 75
     0
 76
     0
 77
     1
 78
     8
170
     0
171
     3
172
     1
173
     0
174
     0
175
     0
176
     0
177
     0
178
     0
270
     2
271
     2
272
     2
273
     2
274
     3
340
11
275
     0
280
     0
281
     0
282
     0
283
     0
284
     8
285
     0
286
     0
287
     3
288
     0
  0
ENDTAB
  0
TABLE
  2
BLOCK_RECORD
  5
1
330
0
100
AcDbSymbolTable
 70
     1
  0
BLOCK_RECORD
  5
1F
330
1
100
AcDbSymbolTableRecord
100
AcDbBlockTableRecord
  2
*MODEL_SPACE
  0
BLOCK_RECORD
  5
1B
330
1
100
AcDbSymbolTableRecord
100
AcDbBlockTableRecord
  2
*PAPER_SPACE
  0
ENDTAB
  0
ENDSEC
  0
SECTION
  2
BLOCKS
  0
BLOCK
  5
20
330
1F
100
AcDbEntity
  8
0
100
AcDbBlockBegin
  2
*MODEL_SPACE
 70
     0
 10
0.0
 20
0.0
 30
0.0
  3
*MODEL_SPACE
  1

  0
ENDBLK
  5
21
330
1F
100
AcDbEntity
  8
0
100
AcDbBlockEnd
  0
BLOCK
  5
1C
330
1B
100
AcDbEntity
 67
     1
  8
0
100
AcDbBlockBegin
  2
*PAPER_SPACE
  1

  0
ENDBLK
  5
1D
330
1B
100
AcDbEntity
 67
     1
  8
0
100
AcDbBlockEnd
  0
ENDSEC
  0
SECTION
  2
ENTITIES
  0
SPLINE
  5
100
100
AcDbEntity
  8
Layer_1
 62
7
100
AcDbSpline
 70
8
 71
3
 72
8
 73
4
 74
0
 40
0
 40
0
 40
0
 40
0
 40
1
 40
1
 40
1
 40
1
 10
11.502856
 20
288.379494
 30
0.0
 10
11.502856
 20
288.379494
 30
0.0
 10
12.425101
 20
281.491720
 30
0.0
 10
13.037467
 20
276.587911
 30
0.0
  0
SPLINE
  5
101
100
AcDbEntity
  8
Layer_1
 62
7
100
AcDbSpline
 70
8
 71
3
 72
8
 73
4
 74
0
 40
0
 40
0
 40
0
 40
0
 40
1
 40
1
 40
1
 40
1
 10
13.037467
 20
276.587911
 30
0.0
 10
6.801626
 20
267.385801
 30
0.0
 10
9.372586
 20
253.352414
 30
0.0
 10
18.770078
 20
247.263244
 30
0.0
  0
SPLINE
  5
102
100
AcDbEntity
  8
Layer_1
 62
7
100
AcDbSpline
 70
8
 71
3
 72
8
 73
4
 74
0
 40
0
 40
0
 40
0
 40
0
 40
1
 40
1
 40
1
 40
1
 10
18.770078
 20
247.263244
 30
0.0
 10
22.396351
 20
244.733291
 30
0.0
 10
26.809714
 20
243.456151
 30
0.0
 10
31.301083
 20
243.382265
 30
0.0
  0
SPLINE
  5
103
100
AcDbEntity
  8
Layer_1
 62
7
100
AcDbSpline
 70
8
 71
3
 72
8
 73
4
 74
0
 40
0
 40
0
 40
0
 40
0
 40
1
 40
1
 40
1
 40
1
 10
31.301083
 20
243.382265
 30
0.0
 10
35.792452
 20
243.308379
 30
0.0
 10
40.368855
 20
244.592519
 30
0.0
 10
44.108356
 20
247.201522
 30
0.0
  0
SPLINE
  5
104
100
AcDbEntity
  8
Layer_1
 62
7
100
AcDbSpline
 70
8
 71
3
 72
8
 73
4
 74
0
 40
0
 40
0
 40
0
 40
0
 40
1
 40
1
 40
1
 40
1
 10
44.108356
 20
247.201522
 30
0.0
 10
53.505848
 20
253.290664
 30
0.0
 10
56.076836
 20
267.324079
 30
0.0
 10
49.840995
 20
276.526161
 30
0.0
  0
SPLINE
  5
105
100
AcDbEntity
  8
Layer_1
 62
7
100
AcDbSpline
 70
8
 71
3
 72
8
 73
4
 74
0
 40
0
 40
0
 40
0
 40
0
 40
1
 40
1
 40
1
 40
1
 10
49.840995
 20
276.526161
 30
0.0
 10
50.453361
 20
281.429969
 30
0.0
 10
51.375578
 20
288.317772
 30
0.0
 10
51.375578
 20
288.317772
 30
0.0
  0
SPLINE
  5
106
100
AcDbEntity
  8
Layer_1
 62
7
100
AcDbSpline
 70
8
 71
3
 72
8
 73
4
 74
0
 40
0
 40
0
 40
0
 40
0
 40
1
 40
1
 40
1
 40
1
 10
51.375578
 20
288.317772
 30
0.0
 10
51.375578
 20
288.317772
 30
0.0
 10
45.879216
 20
286.184228
 30
0.0
 10
40.633495
 20
284.366661
 30
0.0
  0
SPLINE
  5
107
100
AcDbEntity
  8
Layer_1
 62
7
100
AcDbSpline
 70
8
 71
3
 72
8
 73
4
 74
0
 40
0
 40
0
 40
0
 40
0
 40
1
 40
1
 40
1
 40
1
 10
40.633495
 20
284.366661
 30
0.0
 10
37.939514
 20
285.656501
 30
0.0
 10
34.680610
 20
286.219901
 30
0.0
 10
31.582148
 20
286.275979
 30
0.0
  0
SPLINE
  5
108
100
AcDbEntity
  8
Layer_1
 62
7
100
AcDbSpline
 70
8
 71
3
 72
8
 73
4
 74
0
 40
0
 40
0
 40
0
 40
0
 40
1
 40
1
 40
1
 40
1
 10
31.582148
 20
286.275979
 30
0.0
 10
28.483715
 20
286.332028
 30
0.0
 10
25.056070
 20
285.774301
 30
0.0
 10
22.244967
 20
284.428383
 30
0.0
  0
SPLINE
  5
109
100
AcDbEntity
  8
Layer_1
 62
7
100
AcDbSpline
 70
8
 71
3
 72
8
 73
4
 74
0
 40
0
 40
0
 40
0
 40
0
 40
1
 40
1
 40
1
 40
1
 10
22.244967
 20
284.428383
 30
0.0
 10
16.999303
 20
286.245950
 30
0.0
 10
11.502856
 20
288.379494
 30
0.0
 10
11.502856
 20
288.379494
 30
0.0
  0
SPLINE
  5
10a
100
AcDbEntity
  8
Layer_1
 62
7
100
AcDbSpline
 70
8
 71
3
 72
8
 73
4
 74
0
 40
0
 40
0
 40
0
 40
0
 40
1
 40
1
 40
1
 40
1
 10
23.313682
 20
251.071535
 30
0.0
 10
23.281451
 20
250.802784
 30
0.0
 10
23.027414
 20
250.609890
 30
0.0
 10
22.746307
 20
250.640694
 30
0.0
  0
SPLINE
  5
10b
100
AcDbEntity
  8
Layer_1
 62
7
100
AcDbSpline
 70
8
 71
3
 72
8
 73
4
 74
0
 40
0
 40
0
 40
0
 40
0
 40
1
 40
1
 40
1
 40
1
 10
22.746307
 20
250.640694
 30
0.0
 10
22.465177
 20
250.671500
 30
0.0
 10
22.263421
 20
250.914340
 30
0.0
 10
22.295652
 20
251.183092
 30
0.0
  0
SPLINE
  5
10c
100
AcDbEntity
  8
Layer_1
 62
7
100
AcDbSpline
 70
8
 71
3
 72
8
 73
4
 74
0
 40
0
 40
0
 40
0
 40
0
 40
1
 40
1
 40
1
 40
1
 10
22.295652
 20
251.183092
 30
0.0
 10
22.327883
 20
251.451843
 30
0.0
 10
22.581897
 20
251.644739
 30
0.0
 10
22.863027
 20
251.613933
 30
0.0
  0
SPLINE
  5
10d
100
AcDbEntity
  8
Layer_1
 62
7
100
AcDbSpline
 70
8
 71
3
 72
8
 73
4
 74
0
 40
0
 40
0
 40
0
 40
0
 40
1
 40
1
 40
1
 40
1
 10
22.863027
 20
251.613933
 30
0.0
 10
23.144134
 20
251.583129
 30
0.0
 10
23.345914
 20
251.340286
 30
0.0
 10
23.313682
 20
251.071535
 30
0.0
  0
LWPOLYLINE
  5
10e
100
AcDbEntity
  8
Layer_1
 62
7
100
AcDbPolyline
 90
2
 70
0
 10
11.502856
 20
288.379494
 30
0.0
 10
11.502856
 20
288.379494
 30
0.0
  0
SPLINE
  5
10f
100
AcDbEntity
  8
Layer_1
 62
7
100
AcDbSpline
 70
8
 71
3
 72
8
 73
4
 74
0
 40
0
 40
0
 40
0
 40
0
 40
1
 40
1
 40
1
 40
1
 10
23.284865
 20
253.543463
 30
0.0
 10
23.252634
 20
253.274712
 30
0.0
 10
22.998597
 20
253.081818
 30
0.0
 10
22.717490
 20
253.112622
 30
0.0
  0
SPLINE
  5
110
100
AcDbEntity
  8
Layer_1
 62
7
100
AcDbSpline
 70
8
 71
3
 72
8
 73
4
 74
0
 40
0
 40
0
 40
0
 40
0
 40
1
 40
1
 40
1
 40
1
 10
22.717490
 20
253.112622
 30
0.0
 10
22.436360
 20
253.143428
 30
0.0
 10
22.234604
 20
253.386268
 30
0.0
 10
22.266835
 20
253.655020
 30
0.0
  0
SPLINE
  5
111
100
AcDbEntity
  8
Layer_1
 62
7
100
AcDbSpline
 70
8
 71
3
 72
8
 73
4
 74
0
 40
0
 40
0
 40
0
 40
0
 40
1
 40
1
 40
1
 40
1
 10
22.266835
 20
253.655020
 30
0.0
 10
22.299066
 20
253.923771
 30
0.0
 10
22.553080
 20
254.116667
 30
0.0
 10
22.834210
 20
254.085861
 30
0.0
  0
SPLINE
  5
112
100
AcDbEntity
  8
Layer_1
 62
7
100
AcDbSpline
 70
8
 71
3
 72
8
 73
4
 74
0
 40
0
 40
0
 40
0
 40
0
 40
1
 40
1
 40
1
 40
1
 10
22.834210
 20
254.085861
 30
0.0
 10
23.115317
 20
254.055057
 30
0.0
 10
23.317097
 20
253.812214
 30
0.0
 10
23.284865
 20
253.543463
 30
0.0
  0
LWPOLYLINE
  5
113
100
AcDbEntity
  8
Layer_1
 62
7
100
AcDbPolyline
 90
2
 70
0
 10
23.313682
 20
251.071535
 30
0.0
 10
23.313682
 20
251.071535
 30
0.0
  0
SPLINE
  5
114
100
AcDbEntity
  8
Layer_1
 62
7
100
AcDbSpline
 70
8
 71
3
 72
8
 73
4
 74
0
 40
0
 40
0
 40
0
 40
0
 40
1
 40
1
 40
1
 40
1
 10
23.281423
 20
256.069270
 30
0.0
 10
23.249192
 20
255.800519
 30
0.0
 10
22.995154
 20
255.607625
 30
0.0
 10
22.714048
 20
255.638429
 30
0.0
  0
SPLINE
  5
115
100
AcDbEntity
  8
Layer_1
 62
7
100
AcDbSpline
 70
8
 71
3
 72
8
 73
4
 74
0
 40
0
 40
0
 40
0
 40
0
 40
1
 40
1
 40
1
 40
1
 10
22.714048
 20
255.638429
 30
0.0
 10
22.432917
 20
255.669236
 30
0.0
 10
22.231161
 20
255.912076
 30
0.0
 10
22.263393
 20
256.180827
 30
0.0
  0
SPLINE
  5
116
100
AcDbEntity
  8
Layer_1
 62
7
100
AcDbSpline
 70
8
 71
3
 72
8
 73
4
 74
0
 40
0
 40
0
 40
0
 40
0
 40
1
 40
1
 40
1
 40
1
 10
22.263393
 20
256.180827
 30
0.0
 10
22.295624
 20
256.449578
 30
0.0
 10
22.549637
 20
256.642474
 30
0.0
 10
22.830768
 20
256.611668
 30
0.0
  0
SPLINE
  5
117
100
AcDbEntity
  8
Layer_1
 62
7
100
AcDbSpline
 70
8
 71
3
 72
8
 73
4
 74
0
 40
0
 40
0
 40
0
 40
0
 40
1
 40
1
 40
1
 40
1
 10
22.830768
 20
256.611668
 30
0.0
 10
23.111874
 20
256.580864
 30
0.0
 10
23.313654
 20
256.338021
 30
0.0
 10
23.281423
 20
256.069270
 30
0.0
  0
LWPOLYLINE
  5
118
100
AcDbEntity
  8
Layer_1
 62
7
100
AcDbPolyline
 90
2
 70
0
 10
23.284865
 20
253.543463
 30
0.0
 10
23.284865
 20
253.543463
 30
0.0
  0
SPLINE
  5
119
100
AcDbEntity
  8
Layer_1
 62
7
100
AcDbSpline
 70
8
 71
3
 72
8
 73
4
 74
0
 40
0
 40
0
 40
0
 40
0
 40
1
 40
1
 40
1
 40
1
 10
23.287812
 20
258.579180
 30
0.0
 10
23.255581
 20
258.310429
 30
0.0
 10
23.001544
 20
258.117536
 30
0.0
 10
22.720437
 20
258.148339
 30
0.0
  0
SPLINE
  5
11a
100
AcDbEntity
  8
Layer_1
 62
7
100
AcDbSpline
 70
8
 71
3
 72
8
 73
4
 74
0
 40
0
 40
0
 40
0
 40
0
 40
1
 40
1
 40
1
 40
1
 10
22.720437
 20
258.148339
 30
0.0
 10
22.439307
 20
258.179146
 30
0.0
 10
22.237551
 20
258.421986
 30
0.0
 10
22.269782
 20
258.690737
 30
0.0
  0
SPLINE
  5
11b
100
AcDbEntity
  8
Layer_1
 62
7
100
AcDbSpline
 70
8
 71
3
 72
8
 73
4
 74
0
 40
0
 40
0
 40
0
 40
0
 40
1
 40
1
 40
1
 40
1
 10
22.269782
 20
258.690737
 30
0.0
 10
22.302013
 20
258.959488
 30
0.0
 10
22.556027
 20
259.152385
 30
0.0
 10
22.837157
 20
259.121578
 30
0.0
  0
SPLINE
  5
11c
100
AcDbEntity
  8
Layer_1
 62
7
100
AcDbSpline
 70
8
 71
3
 72
8
 73
4
 74
0
 40
0
 40
0
 40
0
 40
0
 40
1
 40
1
 40
1
 40
1
 10
22.837157
 20
259.121578
 30
0.0
 10
23.118264
 20
259.090774
 30
0.0
 10
23.320043
 20
258.847932
 30
0.0
 10
23.287812
 20
258.579180
 30
0.0
  0
LWPOLYLINE
  5
11d
100
AcDbEntity
  8
Layer_1
 62
7
100
AcDbPolyline
 90
2
 70
0
 10
23.281423
 20
256.069270
 30
0.0
 10
23.281423
 20
256.069270
 30
0.0
  0
SPLINE
  5
11e
100
AcDbEntity
  8
Layer_1
 62
7
100
AcDbSpline
 70
8
 71
3
 72
8
 73
4
 74
0
 40
0
 40
0
 40
0
 40
0
 40
1
 40
1
 40
1
 40
1
 10
23.315547
 20
261.092797
 30
0.0
 10
23.283316
 20
260.824045
 30
0.0
 10
23.029278
 20
260.631152
 30
0.0
 10
22.748172
 20
260.661955
 30
0.0
  0
SPLINE
  5
11f
100
AcDbEntity
  8
Layer_1
 62
7
100
AcDbSpline
 70
8
 71
3
 72
8
 73
4
 74
0
 40
0
 40
0
 40
0
 40
0
 40
1
 40
1
 40
1
 40
1
 10
22.748172
 20
260.661955
 30
0.0
 10
22.467041
 20
260.692762
 30
0.0
 10
22.265285
 20
260.935602
 30
0.0
 10
22.297517
 20
261.204353
 30
0.0
  0
SPLINE
  5
120
100
AcDbEntity
  8
Layer_1
 62
7
100
AcDbSpline
 70
8
 71
3
 72
8
 73
4
 74
0
 40
0
 40
0
 40
0
 40
0
 40
1
 40
1
 40
1
 40
1
 10
22.297517
 20
261.204353
 30
0.0
 10
22.329748
 20
261.473105
 30
0.0
 10
22.583761
 20
261.666001
 30
0.0
 10
22.864892
 20
261.635194
 30
0.0
  0
SPLINE
  5
121
100
AcDbEntity
  8
Layer_1
 62
7
100
AcDbSpline
 70
8
 71
3
 72
8
 73
4
 74
0
 40
0
 40
0
 40
0
 40
0
 40
1
 40
1
 40
1
 40
1
 10
22.864892
 20
261.635194
 30
0.0
 10
23.145998
 20
261.604390
 30
0.0
 10
23.347778
 20
261.361548
 30
0.0
 10
23.315547
 20
261.092797
 30
0.0
  0
LWPOLYLINE
  5
122
100
AcDbEntity
  8
Layer_1
 62
7
100
AcDbPolyline
 90
2
 70
0
 10
23.287812
 20
258.579180
 30
0.0
 10
23.287812
 20
258.579180
 30
0.0
  0
SPLINE
  5
123
100
AcDbEntity
  8
Layer_1
 62
7
100
AcDbSpline
 70
8
 71
3
 72
8
 73
4
 74
0
 40
0
 40
0
 40
0
 40
0
 40
1
 40
1
 40
1
 40
1
 10
23.292364
 20
263.562415
 30
0.0
 10
23.260132
 20
263.293663
 30
0.0
 10
23.006095
 20
263.100770
 30
0.0
 10
22.724988
 20
263.131574
 30
0.0
  0
SPLINE
  5
124
100
AcDbEntity
  8
Layer_1
 62
7
100
AcDbSpline
 70
8
 71
3
 72
8
 73
4
 74
0
 40
0
 40
0
 40
0
 40
0
 40
1
 40
1
 40
1
 40
1
 10
22.724988
 20
263.131574
 30
0.0
 10
22.443858
 20
263.162380
 30
0.0
 10
22.242102
 20
263.405220
 30
0.0
 10
22.274333
 20
263.673971
 30
0.0
  0
SPLINE
  5
125
100
AcDbEntity
  8
Layer_1
 62
7
100
AcDbSpline
 70
8
 71
3
 72
8
 73
4
 74
0
 40
0
 40
0
 40
0
 40
0
 40
1
 40
1
 40
1
 40
1
 10
22.274333
 20
263.673971
 30
0.0
 10
22.306565
 20
263.942723
 30
0.0
 10
22.560578
 20
264.135619
 30
0.0
 10
22.841708
 20
264.104812
 30
0.0
  0
SPLINE
  5
126
100
AcDbEntity
  8
Layer_1
 62
7
100
AcDbSpline
 70
8
 71
3
 72
8
 73
4
 74
0
 40
0
 40
0
 40
0
 40
0
 40
1
 40
1
 40
1
 40
1
 10
22.841708
 20
264.104812
 30
0.0
 10
23.122815
 20
264.074008
 30
0.0
 10
23.324595
 20
263.831166
 30
0.0
 10
23.292364
 20
263.562415
 30
0.0
  0
LWPOLYLINE
  5
127
100
AcDbEntity
  8
Layer_1
 62
7
100
AcDbPolyline
 90
2
 70
0
 10
23.315547
 20
261.092797
 30
0.0
 10
23.315547
 20
261.092797
 30
0.0
  0
SPLINE
  5
128
100
AcDbEntity
  8
Layer_1
 62
7
100
AcDbSpline
 70
8
 71
3
 72
8
 73
4
 74
0
 40
0
 40
0
 40
0
 40
0
 40
1
 40
1
 40
1
 40
1
 10
23.303138
 20
266.124673
 30
0.0
 10
23.270907
 20
265.855921
 30
0.0
 10
23.016869
 20
265.663028
 30
0.0
 10
22.735763
 20
265.693832
 30
0.0
  0
SPLINE
  5
129
100
AcDbEntity
  8
Layer_1
 62
7
100
AcDbSpline
 70
8
 71
3
 72
8
 73
4
 74
0
 40
0
 40
0
 40
0
 40
0
 40
1
 40
1
 40
1
 40
1
 10
22.735763
 20
265.693832
 30
0.0
 10
22.454632
 20
265.724638
 30
0.0
 10
22.252877
 20
265.967478
 30
0.0
 10
22.285108
 20
266.236229
 30
0.0
  0
SPLINE
  5
12a
100
AcDbEntity
  8
Layer_1
 62
7
100
AcDbSpline
 70
8
 71
3
 72
8
 73
4
 74
0
 40
0
 40
0
 40
0
 40
0
 40
1
 40
1
 40
1
 40
1
 10
22.285108
 20
266.236229
 30
0.0
 10
22.317339
 20
266.504981
 30
0.0
 10
22.571352
 20
266.697877
 30
0.0
 10
22.852483
 20
266.667071
 30
0.0
  0
SPLINE
  5
12b
100
AcDbEntity
  8
Layer_1
 62
7
100
AcDbSpline
 70
8
 71
3
 72
8
 73
4
 74
0
 40
0
 40
0
 40
0
 40
0
 40
1
 40
1
 40
1
 40
1
 10
22.852483
 20
266.667071
 30
0.0
 10
23.133589
 20
266.636267
 30
0.0
 10
23.335369
 20
266.393424
 30
0.0
 10
23.303138
 20
266.124673
 30
0.0
  0
LWPOLYLINE
  5
12c
100
AcDbEntity
  8
Layer_1
 62
7
100
AcDbPolyline
 90
2
 70
0
 10
23.292364
 20
263.562415
 30
0.0
 10
23.292364
 20
263.562415
 30
0.0
  0
SPLINE
  5
12d
100
AcDbEntity
  8
Layer_1
 62
7
100
AcDbSpline
 70
8
 71
3
 72
8
 73
4
 74
0
 40
0
 40
0
 40
0
 40
0
 40
1
 40
1
 40
1
 40
1
 10
23.310988
 20
268.625006
 30
0.0
 10
23.278757
 20
268.356255
 30
0.0
 10
23.024719
 20
268.163361
 30
0.0
 10
22.743613
 20
268.194165
 30
0.0
  0
SPLINE
  5
12e
100
AcDbEntity
  8
Layer_1
 62
7
100
AcDbSpline
 70
8
 71
3
 72
8
 73
4
 74
0
 40
0
 40
0
 40
0
 40
0
 40
1
 40
1
 40
1
 40
1
 10
22.743613
 20
268.194165
 30
0.0
 10
22.462482
 20
268.224971
 30
0.0
 10
22.260727
 20
268.467811
 30
0.0
 10
22.292958
 20
268.736563
 30
0.0
  0
SPLINE
  5
12f
100
AcDbEntity
  8
Layer_1
 62
7
100
AcDbSpline
 70
8
 71
3
 72
8
 73
4
 74
0
 40
0
 40
0
 40
0
 40
0
 40
1
 40
1
 40
1
 40
1
 10
22.292958
 20
268.736563
 30
0.0
 10
22.325189
 20
269.005314
 30
0.0
 10
22.579202
 20
269.198210
 30
0.0
 10
22.860333
 20
269.167404
 30
0.0
  0
SPLINE
  5
130
100
AcDbEntity
  8
Layer_1
 62
7
100
AcDbSpline
 70
8
 71
3
 72
8
 73
4
 74
0
 40
0
 40
0
 40
0
 40
0
 40
1
 40
1
 40
1
 40
1
 10
22.860333
 20
269.167404
 30
0.0
 10
23.141439
 20
269.136600
 30
0.0
 10
23.343219
 20
268.893757
 30
0.0
 10
23.310988
 20
268.625006
 30
0.0
  0
LWPOLYLINE
  5
131
100
AcDbEntity
  8
Layer_1
 62
7
100
AcDbPolyline
 90
2
 70
0
 10
23.303138
 20
266.124673
 30
0.0
 10
23.303138
 20
266.124673
 30
0.0
  0
SPLINE
  5
132
100
AcDbEntity
  8
Layer_1
 62
7
100
AcDbSpline
 70
8
 71
3
 72
8
 73
4
 74
0
 40
0
 40
0
 40
0
 40
0
 40
1
 40
1
 40
1
 40
1
 10
23.296063
 20
271.158994
 30
0.0
 10
23.263831
 20
270.890243
 30
0.0
 10
23.009794
 20
270.697349
 30
0.0
 10
22.728688
 20
270.728153
 30
0.0
  0
SPLINE
  5
133
100
AcDbEntity
  8
Layer_1
 62
7
100
AcDbSpline
 70
8
 71
3
 72
8
 73
4
 74
0
 40
0
 40
0
 40
0
 40
0
 40
1
 40
1
 40
1
 40
1
 10
22.728688
 20
270.728153
 30
0.0
 10
22.447557
 20
270.758960
 30
0.0
 10
22.245801
 20
271.001800
 30
0.0
 10
22.278032
 20
271.270551
 30
0.0
  0
SPLINE
  5
134
100
AcDbEntity
  8
Layer_1
 62
7
100
AcDbSpline
 70
8
 71
3
 72
8
 73
4
 74
0
 40
0
 40
0
 40
0
 40
0
 40
1
 40
1
 40
1
 40
1
 10
22.278032
 20
271.270551
 30
0.0
 10
22.310264
 20
271.539302
 30
0.0
 10
22.564277
 20
271.732198
 30
0.0
 10
22.845408
 20
271.701392
 30
0.0
  0
SPLINE
  5
135
100
AcDbEntity
  8
Layer_1
 62
7
100
AcDbSpline
 70
8
 71
3
 72
8
 73
4
 74
0
 40
0
 40
0
 40
0
 40
0
 40
1
 40
1
 40
1
 40
1
 10
22.845408
 20
271.701392
 30
0.0
 10
23.126514
 20
271.670588
 30
0.0
 10
23.328294
 20
271.427745
 30
0.0
 10
23.296063
 20
271.158994
 30
0.0
  0
LWPOLYLINE
  5
136
100
AcDbEntity
  8
Layer_1
 62
7
100
AcDbPolyline
 90
2
 70
0
 10
23.310988
 20
268.625006
 30
0.0
 10
23.310988
 20
268.625006
 30
0.0
  0
SPLINE
  5
137
100
AcDbEntity
  8
Layer_1
 62
7
100
AcDbSpline
 70
8
 71
3
 72
8
 73
4
 74
0
 40
0
 40
0
 40
0
 40
0
 40
1
 40
1
 40
1
 40
1
 10
23.313783
 20
273.654995
 30
0.0
 10
23.281551
 20
273.386244
 30
0.0
 10
23.027514
 20
273.193350
 30
0.0
 10
22.746408
 20
273.224154
 30
0.0
  0
SPLINE
  5
138
100
AcDbEntity
  8
Layer_1
 62
7
100
AcDbSpline
 70
8
 71
3
 72
8
 73
4
 74
0
 40
0
 40
0
 40
0
 40
0
 40
1
 40
1
 40
1
 40
1
 10
22.746408
 20
273.224154
 30
0.0
 10
22.465277
 20
273.254961
 30
0.0
 10
22.263521
 20
273.497801
 30
0.0
 10
22.295752
 20
273.766552
 30
0.0
  0
SPLINE
  5
139
100
AcDbEntity
  8
Layer_1
 62
7
100
AcDbSpline
 70
8
 71
3
 72
8
 73
4
 74
0
 40
0
 40
0
 40
0
 40
0
 40
1
 40
1
 40
1
 40
1
 10
22.295752
 20
273.766552
 30
0.0
 10
22.327984
 20
274.035303
 30
0.0
 10
22.581997
 20
274.228200
 30
0.0
 10
22.863128
 20
274.197393
 30
0.0
  0
SPLINE
  5
13a
100
AcDbEntity
  8
Layer_1
 62
7
100
AcDbSpline
 70
8
 71
3
 72
8
 73
4
 74
0
 40
0
 40
0
 40
0
 40
0
 40
1
 40
1
 40
1
 40
1
 10
22.863128
 20
274.197393
 30
0.0
 10
23.144234
 20
274.166589
 30
0.0
 10
23.346014
 20
273.923747
 30
0.0
 10
23.313783
 20
273.654995
 30
0.0
  0
LWPOLYLINE
  5
13b
100
AcDbEntity
  8
Layer_1
 62
7
100
AcDbPolyline
 90
2
 70
0
 10
23.296063
 20
271.158994
 30
0.0
 10
23.296063
 20
271.158994
 30
0.0
  0
SPLINE
  5
13c
100
AcDbEntity
  8
Layer_1
 62
7
100
AcDbSpline
 70
8
 71
3
 72
8
 73
4
 74
0
 40
0
 40
0
 40
0
 40
0
 40
1
 40
1
 40
1
 40
1
 10
23.292243
 20
276.197192
 30
0.0
 10
23.260012
 20
275.928441
 30
0.0
 10
23.005974
 20
275.735547
 30
0.0
 10
22.724868
 20
275.766351
 30
0.0
  0
SPLINE
  5
13d
100
AcDbEntity
  8
Layer_1
 62
7
100
AcDbSpline
 70
8
 71
3
 72
8
 73
4
 74
0
 40
0
 40
0
 40
0
 40
0
 40
1
 40
1
 40
1
 40
1
 10
22.724868
 20
275.766351
 30
0.0
 10
22.443737
 20
275.797158
 30
0.0
 10
22.241981
 20
276.039998
 30
0.0
 10
22.274213
 20
276.308749
 30
0.0
  0
SPLINE
  5
13e
100
AcDbEntity
  8
Layer_1
 62
7
100
AcDbSpline
 70
8
 71
3
 72
8
 73
4
 74
0
 40
0
 40
0
 40
0
 40
0
 40
1
 40
1
 40
1
 40
1
 10
22.274213
 20
276.308749
 30
0.0
 10
22.306444
 20
276.577500
 30
0.0
 10
22.560457
 20
276.770397
 30
0.0
 10
22.841588
 20
276.739590
 30
0.0
  0
SPLINE
  5
13f
100
AcDbEntity
  8
Layer_1
 62
7
100
AcDbSpline
 70
8
 71
3
 72
8
 73
4
 74
0
 40
0
 40
0
 40
0
 40
0
 40
1
 40
1
 40
1
 40
1
 10
22.841588
 20
276.739590
 30
0.0
 10
23.122694
 20
276.708786
 30
0.0
 10
23.324474
 20
276.465944
 30
0.0
 10
23.292243
 20
276.197192
 30
0.0
  0
LWPOLYLINE
  5
140
100
AcDbEntity
  8
Layer_1
 62
7
100
AcDbPolyline
 90
2
 70
0
 10
23.313783
 20
273.654995
 30
0.0
 10
23.313783
 20
273.654995
 30
0.0
  0
SPLINE
  5
141
100
AcDbEntity
  8
Layer_1
 62
7
100
AcDbSpline
 70
8
 71
3
 72
8
 73
4
 74
0
 40
0
 40
0
 40
0
 40
0
 40
1
 40
1
 40
1
 40
1
 10
23.356506
 20
278.654556
 30
0.0
 10
23.323202
 20
278.385835
 30
0.0
 10
23.060705
 20
278.192962
 30
0.0
 10
22.770239
 20
278.223763
 30
0.0
  0
SPLINE
  5
142
100
AcDbEntity
  8
Layer_1
 62
7
100
AcDbSpline
 70
8
 71
3
 72
8
 73
4
 74
0
 40
0
 40
0
 40
0
 40
0
 40
1
 40
1
 40
1
 40
1
 10
22.770239
 20
278.223763
 30
0.0
 10
22.479747
 20
278.254566
 30
0.0
 10
22.271273
 20
278.497379
 30
0.0
 10
22.304578
 20
278.766101
 30
0.0
  0
SPLINE
  5
143
100
AcDbEntity
  8
Layer_1
 62
7
100
AcDbSpline
 70
8
 71
3
 72
8
 73
4
 74
0
 40
0
 40
0
 40
0
 40
0
 40
1
 40
1
 40
1
 40
1
 10
22.304578
 20
278.766101
 30
0.0
 10
22.337882
 20
279.034823
 30
0.0
 10
22.600354
 20
279.227698
 30
0.0
 10
22.890845
 20
279.196895
 30
0.0
  0
SPLINE
  5
144
100
AcDbEntity
  8
Layer_1
 62
7
100
AcDbSpline
 70
8
 71
3
 72
8
 73
4
 74
0
 40
0
 40
0
 40
0
 40
0
 40
1
 40
1
 40
1
 40
1
 10
22.890845
 20
279.196895
 30
0.0
 10
23.181312
 20
279.166094
 30
0.0
 10
23.389811
 20
278.923278
 30
0.0
 10
23.356506
 20
278.654556
 30
0.0
  0
LWPOLYLINE
  5
145
100
AcDbEntity
  8
Layer_1
 62
7
100
AcDbPolyline
 90
2
 70
0
 10
23.292243
 20
276.197192
 30
0.0
 10
23.292243
 20
276.197192
 30
0.0
  0
SPLINE
  5
146
100
AcDbEntity
  8
Layer_1
 62
7
100
AcDbSpline
 70
8
 71
3
 72
8
 73
4
 74
0
 40
0
 40
0
 40
0
 40
0
 40
1
 40
1
 40
1
 40
1
 10
38.620188
 20
256.172610
 30
0.0
 10
38.652046
 20
255.903838
 30
0.0
 10
38.451280
 20
255.661123
 30
0.0
 10
38.171797
 20
255.630496
 30
0.0
  0
SPLINE
  5
147
100
AcDbEntity
  8
Layer_1
 62
7
100
AcDbSpline
 70
8
 71
3
 72
8
 73
4
 74
0
 40
0
 40
0
 40
0
 40
0
 40
1
 40
1
 40
1
 40
1
 10
38.171797
 20
255.630496
 30
0.0
 10
37.892290
 20
255.599866
 30
0.0
 10
37.639895
 20
255.792923
 30
0.0
 10
37.608037
 20
256.061694
 30
0.0
  0
SPLINE
  5
148
100
AcDbEntity
  8
Layer_1
 62
7
100
AcDbSpline
 70
8
 71
3
 72
8
 73
4
 74
0
 40
0
 40
0
 40
0
 40
0
 40
1
 40
1
 40
1
 40
1
 10
37.608037
 20
256.061694
 30
0.0
 10
37.576178
 20
256.330466
 30
0.0
 10
37.776920
 20
256.573179
 30
0.0
 10
38.056427
 20
256.603808
 30
0.0
  0
SPLINE
  5
149
100
AcDbEntity
  8
Layer_1
 62
7
100
AcDbSpline
 70
8
 71
3
 72
8
 73
4
 74
0
 40
0
 40
0
 40
0
 40
0
 40
1
 40
1
 40
1
 40
1
 10
38.056427
 20
256.603808
 30
0.0
 10
38.335910
 20
256.634435
 30
0.0
 10
38.588329
 20
256.441381
 30
0.0
 10
38.620188
 20
256.172610
 30
0.0
  0
LWPOLYLINE
  5
14a
100
AcDbEntity
  8
Layer_1
 62
7
100
AcDbPolyline
 90
2
 70
0
 10
23.356506
 20
278.654556
 30
0.0
 10
23.356506
 20
278.654556
 30
0.0
  0
SPLINE
  5
14b
100
AcDbEntity
  8
Layer_1
 62
7
100
AcDbSpline
 70
8
 71
3
 72
8
 73
4
 74
0
 40
0
 40
0
 40
0
 40
0
 40
1
 40
1
 40
1
 40
1
 10
38.596539
 20
278.767491
 30
0.0
 10
38.628398
 20
278.498720
 30
0.0
 10
38.427632
 20
278.256004
 30
0.0
 10
38.148149
 20
278.225378
 30
0.0
  0
SPLINE
  5
14c
100
AcDbEntity
  8
Layer_1
 62
7
100
AcDbSpline
 70
8
 71
3
 72
8
 73
4
 74
0
 40
0
 40
0
 40
0
 40
0
 40
1
 40
1
 40
1
 40
1
 10
38.148149
 20
278.225378
 30
0.0
 10
37.868642
 20
278.194748
 30
0.0
 10
37.616247
 20
278.387804
 30
0.0
 10
37.584388
 20
278.656576
 30
0.0
  0
SPLINE
  5
14d
100
AcDbEntity
  8
Layer_1
 62
7
100
AcDbSpline
 70
8
 71
3
 72
8
 73
4
 74
0
 40
0
 40
0
 40
0
 40
0
 40
1
 40
1
 40
1
 40
1
 10
37.584388
 20
278.656576
 30
0.0
 10
37.552530
 20
278.925347
 30
0.0
 10
37.753272
 20
279.168060
 30
0.0
 10
38.032779
 20
279.198690
 30
0.0
  0
SPLINE
  5
14e
100
AcDbEntity
  8
Layer_1
 62
7
100
AcDbSpline
 70
8
 71
3
 72
8
 73
4
 74
0
 40
0
 40
0
 40
0
 40
0
 40
1
 40
1
 40
1
 40
1
 10
38.032779
 20
279.198690
 30
0.0
 10
38.312262
 20
279.229317
 30
0.0
 10
38.564681
 20
279.036263
 30
0.0
 10
38.596539
 20
278.767491
 30
0.0
  0
LWPOLYLINE
  5
14f
100
AcDbEntity
  8
Layer_1
 62
7
100
AcDbPolyline
 90
2
 70
0
 10
38.620188
 20
256.172610
 30
0.0
 10
38.620188
 20
256.172610
 30
0.0
  0
SPLINE
  5
150
100
AcDbEntity
  8
Layer_1
 62
7
100
AcDbSpline
 70
8
 71
3
 72
8
 73
4
 74
0
 40
0
 40
0
 40
0
 40
0
 40
1
 40
1
 40
1
 40
1
 10
38.619279
 20
276.269807
 30
0.0
 10
38.651137
 20
276.001036
 30
0.0
 10
38.450372
 20
275.758320
 30
0.0
 10
38.170888
 20
275.727693
 30
0.0
  0
SPLINE
  5
151
100
AcDbEntity
  8
Layer_1
 62
7
100
AcDbSpline
 70
8
 71
3
 72
8
 73
4
 74
0
 40
0
 40
0
 40
0
 40
0
 40
1
 40
1
 40
1
 40
1
 10
38.170888
 20
275.727693
 30
0.0
 10
37.891382
 20
275.697064
 30
0.0
 10
37.638986
 20
275.890120
 30
0.0
 10
37.607128
 20
276.158892
 30
0.0
  0
SPLINE
  5
152
100
AcDbEntity
  8
Layer_1
 62
7
100
AcDbSpline
 70
8
 71
3
 72
8
 73
4
 74
0
 40
0
 40
0
 40
0
 40
0
 40
1
 40
1
 40
1
 40
1
 10
37.607128
 20
276.158892
 30
0.0
 10
37.575269
 20
276.427663
 30
0.0
 10
37.776011
 20
276.670376
 30
0.0
 10
38.055518
 20
276.701006
 30
0.0
  0
SPLINE
  5
153
100
AcDbEntity
  8
Layer_1
 62
7
100
AcDbSpline
 70
8
 71
3
 72
8
 73
4
 74
0
 40
0
 40
0
 40
0
 40
0
 40
1
 40
1
 40
1
 40
1
 10
38.055518
 20
276.701006
 30
0.0
 10
38.335001
 20
276.731632
 30
0.0
 10
38.587420
 20
276.538579
 30
0.0
 10
38.619279
 20
276.269807
 30
0.0
  0
LWPOLYLINE
  5
154
100
AcDbEntity
  8
Layer_1
 62
7
100
AcDbPolyline
 90
2
 70
0
 10
38.596539
 20
278.767491
 30
0.0
 10
38.596539
 20
278.767491
 30
0.0
  0
SPLINE
  5
155
100
AcDbEntity
  8
Layer_1
 62
7
100
AcDbSpline
 70
8
 71
3
 72
8
 73
4
 74
0
 40
0
 40
0
 40
0
 40
0
 40
1
 40
1
 40
1
 40
1
 10
38.608374
 20
273.770464
 30
0.0
 10
38.640233
 20
273.501693
 30
0.0
 10
38.439467
 20
273.258978
 30
0.0
 10
38.159984
 20
273.228351
 30
0.0
  0
SPLINE
  5
156
100
AcDbEntity
  8
Layer_1
 62
7
100
AcDbSpline
 70
8
 71
3
 72
8
 73
4
 74
0
 40
0
 40
0
 40
0
 40
0
 40
1
 40
1
 40
1
 40
1
 10
38.159984
 20
273.228351
 30
0.0
 10
37.880477
 20
273.197721
 30
0.0
 10
37.628082
 20
273.390777
 30
0.0
 10
37.596223
 20
273.659549
 30
0.0
  0
SPLINE
  5
157
100
AcDbEntity
  8
Layer_1
 62
7
100
AcDbSpline
 70
8
 71
3
 72
8
 73
4
 74
0
 40
0
 40
0
 40
0
 40
0
 40
1
 40
1
 40
1
 40
1
 10
37.596223
 20
273.659549
 30
0.0
 10
37.564365
 20
273.928321
 30
0.0
 10
37.765107
 20
274.171033
 30
0.0
 10
38.044614
 20
274.201663
 30
0.0
  0
SPLINE
  5
158
100
AcDbEntity
  8
Layer_1
 62
7
100
AcDbSpline
 70
8
 71
3
 72
8
 73
4
 74
0
 40
0
 40
0
 40
0
 40
0
 40
1
 40
1
 40
1
 40
1
 10
38.044614
 20
274.201663
 30
0.0
 10
38.324097
 20
274.232290
 30
0.0
 10
38.576516
 20
274.039236
 30
0.0
 10
38.608374
 20
273.770464
 30
0.0
  0
LWPOLYLINE
  5
159
100
AcDbEntity
  8
Layer_1
 62
7
100
AcDbPolyline
 90
2
 70
0
 10
38.619279
 20
276.269807
 30
0.0
 10
38.619279
 20
276.269807
 30
0.0
  0
SPLINE
  5
15a
100
AcDbEntity
  8
Layer_1
 62
7
100
AcDbSpline
 70
8
 71
3
 72
8
 73
4
 74
0
 40
0
 40
0
 40
0
 40
0
 40
1
 40
1
 40
1
 40
1
 10
38.614210
 20
271.210968
 30
0.0
 10
38.646069
 20
270.942197
 30
0.0
 10
38.445303
 20
270.699481
 30
0.0
 10
38.165820
 20
270.668854
 30
0.0
  0
SPLINE
  5
15b
100
AcDbEntity
  8
Layer_1
 62
7
100
AcDbSpline
 70
8
 71
3
 72
8
 73
4
 74
0
 40
0
 40
0
 40
0
 40
0
 40
1
 40
1
 40
1
 40
1
 10
38.165820
 20
270.668854
 30
0.0
 10
37.886313
 20
270.638225
 30
0.0
 10
37.633918
 20
270.831281
 30
0.0
 10
37.602059
 20
271.100053
 30
0.0
  0
SPLINE
  5
15c
100
AcDbEntity
  8
Layer_1
 62
7
100
AcDbSpline
 70
8
 71
3
 72
8
 73
4
 74
0
 40
0
 40
0
 40
0
 40
0
 40
1
 40
1
 40
1
 40
1
 10
37.602059
 20
271.100053
 30
0.0
 10
37.570201
 20
271.368824
 30
0.0
 10
37.770943
 20
271.611537
 30
0.0
 10
38.050450
 20
271.642166
 30
0.0
  0
SPLINE
  5
15d
100
AcDbEntity
  8
Layer_1
 62
7
100
AcDbSpline
 70
8
 71
3
 72
8
 73
4
 74
0
 40
0
 40
0
 40
0
 40
0
 40
1
 40
1
 40
1
 40
1
 10
38.050450
 20
271.642166
 30
0.0
 10
38.329933
 20
271.672793
 30
0.0
 10
38.582352
 20
271.479740
 30
0.0
 10
38.614210
 20
271.210968
 30
0.0
  0
LWPOLYLINE
  5
15e
100
AcDbEntity
  8
Layer_1
 62
7
100
AcDbPolyline
 90
2
 70
0
 10
38.608374
 20
273.770464
 30
0.0
 10
38.608374
 20
273.770464
 30
0.0
  0
SPLINE
  5
15f
100
AcDbEntity
  8
Layer_1
 62
7
100
AcDbSpline
 70
8
 71
3
 72
8
 73
4
 74
0
 40
0
 40
0
 40
0
 40
0
 40
1
 40
1
 40
1
 40
1
 10
38.633123
 20
268.695998
 30
0.0
 10
38.664981
 20
268.427226
 30
0.0
 10
38.464215
 20
268.184511
 30
0.0
 10
38.184732
 20
268.153884
 30
0.0
  0
SPLINE
  5
160
100
AcDbEntity
  8
Layer_1
 62
7
100
AcDbSpline
 70
8
 71
3
 72
8
 73
4
 74
0
 40
0
 40
0
 40
0
 40
0
 40
1
 40
1
 40
1
 40
1
 10
38.184732
 20
268.153884
 30
0.0
 10
37.905225
 20
268.123254
 30
0.0
 10
37.652830
 20
268.316311
 30
0.0
 10
37.620972
 20
268.585082
 30
0.0
  0
SPLINE
  5
161
100
AcDbEntity
  8
Layer_1
 62
7
100
AcDbSpline
 70
8
 71
3
 72
8
 73
4
 74
0
 40
0
 40
0
 40
0
 40
0
 40
1
 40
1
 40
1
 40
1
 10
37.620972
 20
268.585082
 30
0.0
 10
37.589113
 20
268.853854
 30
0.0
 10
37.789855
 20
269.096567
 30
0.0
 10
38.069362
 20
269.127196
 30
0.0
  0
SPLINE
  5
162
100
AcDbEntity
  8
Layer_1
 62
7
100
AcDbSpline
 70
8
 71
3
 72
8
 73
4
 74
0
 40
0
 40
0
 40
0
 40
0
 40
1
 40
1
 40
1
 40
1
 10
38.069362
 20
269.127196
 30
0.0
 10
38.348845
 20
269.157823
 30
0.0
 10
38.601264
 20
268.964769
 30
0.0
 10
38.633123
 20
268.695998
 30
0.0
  0
LWPOLYLINE
  5
163
100
AcDbEntity
  8
Layer_1
 62
7
100
AcDbPolyline
 90
2
 70
0
 10
38.614210
 20
271.210968
 30
0.0
 10
38.614210
 20
271.210968
 30
0.0
  0
SPLINE
  5
164
100
AcDbEntity
  8
Layer_1
 62
7
100
AcDbSpline
 70
8
 71
3
 72
8
 73
4
 74
0
 40
0
 40
0
 40
0
 40
0
 40
1
 40
1
 40
1
 40
1
 10
38.619612
 20
266.175429
 30
0.0
 10
38.651470
 20
265.906658
 30
0.0
 10
38.450704
 20
265.663942
 30
0.0
 10
38.171221
 20
265.633315
 30
0.0
  0
SPLINE
  5
165
100
AcDbEntity
  8
Layer_1
 62
7
100
AcDbSpline
 70
8
 71
3
 72
8
 73
4
 74
0
 40
0
 40
0
 40
0
 40
0
 40
1
 40
1
 40
1
 40
1
 10
38.171221
 20
265.633315
 30
0.0
 10
37.891714
 20
265.602686
 30
0.0
 10
37.639319
 20
265.795742
 30
0.0
 10
37.607461
 20
266.064514
 30
0.0
  0
SPLINE
  5
166
100
AcDbEntity
  8
Layer_1
 62
7
100
AcDbSpline
 70
8
 71
3
 72
8
 73
4
 74
0
 40
0
 40
0
 40
0
 40
0
 40
1
 40
1
 40
1
 40
1
 10
37.607461
 20
266.064514
 30
0.0
 10
37.575602
 20
266.333285
 30
0.0
 10
37.776344
 20
266.575998
 30
0.0
 10
38.055851
 20
266.606628
 30
0.0
  0
SPLINE
  5
167
100
AcDbEntity
  8
Layer_1
 62
7
100
AcDbSpline
 70
8
 71
3
 72
8
 73
4
 74
0
 40
0
 40
0
 40
0
 40
0
 40
1
 40
1
 40
1
 40
1
 10
38.055851
 20
266.606628
 30
0.0
 10
38.335334
 20
266.637254
 30
0.0
 10
38.587753
 20
266.444201
 30
0.0
 10
38.619612
 20
266.175429
 30
0.0
  0
LWPOLYLINE
  5
168
100
AcDbEntity
  8
Layer_1
 62
7
100
AcDbPolyline
 90
2
 70
0
 10
38.633123
 20
268.695998
 30
0.0
 10
38.633123
 20
268.695998
 30
0.0
  0
SPLINE
  5
169
100
AcDbEntity
  8
Layer_1
 62
7
100
AcDbSpline
 70
8
 71
3
 72
8
 73
4
 74
0
 40
0
 40
0
 40
0
 40
0
 40
1
 40
1
 40
1
 40
1
 10
38.636731
 20
263.673814
 30
0.0
 10
38.668590
 20
263.405043
 30
0.0
 10
38.467824
 20
263.162327
 30
0.0
 10
38.188341
 20
263.131701
 30
0.0
  0
SPLINE
  5
16a
100
AcDbEntity
  8
Layer_1
 62
7
100
AcDbSpline
 70
8
 71
3
 72
8
 73
4
 74
0
 40
0
 40
0
 40
0
 40
0
 40
1
 40
1
 40
1
 40
1
 10
38.188341
 20
263.131701
 30
0.0
 10
37.908834
 20
263.101071
 30
0.0
 10
37.656439
 20
263.294127
 30
0.0
 10
37.624580
 20
263.562899
 30
0.0
  0
SPLINE
  5
16b
100
AcDbEntity
  8
Layer_1
 62
7
100
AcDbSpline
 70
8
 71
3
 72
8
 73
4
 74
0
 40
0
 40
0
 40
0
 40
0
 40
1
 40
1
 40
1
 40
1
 10
37.624580
 20
263.562899
 30
0.0
 10
37.592722
 20
263.831670
 30
0.0
 10
37.793464
 20
264.074383
 30
0.0
 10
38.072971
 20
264.105013
 30
0.0
  0
SPLINE
  5
16c
100
AcDbEntity
  8
Layer_1
 62
7
100
AcDbSpline
 70
8
 71
3
 72
8
 73
4
 74
0
 40
0
 40
0
 40
0
 40
0
 40
1
 40
1
 40
1
 40
1
 10
38.072971
 20
264.105013
 30
0.0
 10
38.352454
 20
264.135640
 30
0.0
 10
38.604873
 20
263.942586
 30
0.0
 10
38.636731
 20
263.673814
 30
0.0
  0
LWPOLYLINE
  5
16d
100
AcDbEntity
  8
Layer_1
 62
7
100
AcDbPolyline
 90
2
 70
0
 10
38.619612
 20
266.175429
 30
0.0
 10
38.619612
 20
266.175429
 30
0.0
  0
SPLINE
  5
16e
100
AcDbEntity
  8
Layer_1
 62
7
100
AcDbSpline
 70
8
 71
3
 72
8
 73
4
 74
0
 40
0
 40
0
 40
0
 40
0
 40
1
 40
1
 40
1
 40
1
 10
38.599352
 20
261.169105
 30
0.0
 10
38.631211
 20
260.900333
 30
0.0
 10
38.430445
 20
260.657618
 30
0.0
 10
38.150962
 20
260.626991
 30
0.0
  0
SPLINE
  5
16f
100
AcDbEntity
  8
Layer_1
 62
7
100
AcDbSpline
 70
8
 71
3
 72
8
 73
4
 74
0
 40
0
 40
0
 40
0
 40
0
 40
1
 40
1
 40
1
 40
1
 10
38.150962
 20
260.626991
 30
0.0
 10
37.871455
 20
260.596362
 30
0.0
 10
37.619060
 20
260.789418
 30
0.0
 10
37.587201
 20
261.058189
 30
0.0
  0
SPLINE
  5
170
100
AcDbEntity
  8
Layer_1
 62
7
100
AcDbSpline
 70
8
 71
3
 72
8
 73
4
 74
0
 40
0
 40
0
 40
0
 40
0
 40
1
 40
1
 40
1
 40
1
 10
37.587201
 20
261.058189
 30
0.0
 10
37.555343
 20
261.326961
 30
0.0
 10
37.756085
 20
261.569674
 30
0.0
 10
38.035592
 20
261.600303
 30
0.0
  0
SPLINE
  5
171
100
AcDbEntity
  8
Layer_1
 62
7
100
AcDbSpline
 70
8
 71
3
 72
8
 73
4
 74
0
 40
0
 40
0
 40
0
 40
0
 40
1
 40
1
 40
1
 40
1
 10
38.035592
 20
261.600303
 30
0.0
 10
38.315075
 20
261.630930
 30
0.0
 10
38.567494
 20
261.437876
 30
0.0
 10
38.599352
 20
261.169105
 30
0.0
  0
LWPOLYLINE
  5
172
100
AcDbEntity
  8
Layer_1
 62
7
100
AcDbPolyline
 90
2
 70
0
 10
38.636731
 20
263.673814
 30
0.0
 10
38.636731
 20
263.673814
 30
0.0
  0
SPLINE
  5
173
100
AcDbEntity
  8
Layer_1
 62
7
100
AcDbSpline
 70
8
 71
3
 72
8
 73
4
 74
0
 40
0
 40
0
 40
0
 40
0
 40
1
 40
1
 40
1
 40
1
 10
38.611011
 20
258.659501
 30
0.0
 10
38.642870
 20
258.390729
 30
0.0
 10
38.442104
 20
258.148014
 30
0.0
 10
38.162621
 20
258.117387
 30
0.0
  0
SPLINE
  5
174
100
AcDbEntity
  8
Layer_1
 62
7
100
AcDbSpline
 70
8
 71
3
 72
8
 73
4
 74
0
 40
0
 40
0
 40
0
 40
0
 40
1
 40
1
 40
1
 40
1
 10
38.162621
 20
258.117387
 30
0.0
 10
37.883114
 20
258.086757
 30
0.0
 10
37.630719
 20
258.279814
 30
0.0
 10
37.598860
 20
258.548585
 30
0.0
  0
SPLINE
  5
175
100
AcDbEntity
  8
Layer_1
 62
7
100
AcDbSpline
 70
8
 71
3
 72
8
 73
4
 74
0
 40
0
 40
0
 40
0
 40
0
 40
1
 40
1
 40
1
 40
1
 10
37.598860
 20
258.548585
 30
0.0
 10
37.567002
 20
258.817357
 30
0.0
 10
37.767744
 20
259.060070
 30
0.0
 10
38.047251
 20
259.090699
 30
0.0
  0
SPLINE
  5
176
100
AcDbEntity
  8
Layer_1
 62
7
100
AcDbSpline
 70
8
 71
3
 72
8
 73
4
 74
0
 40
0
 40
0
 40
0
 40
0
 40
1
 40
1
 40
1
 40
1
 10
38.047251
 20
259.090699
 30
0.0
 10
38.326734
 20
259.121326
 30
0.0
 10
38.579153
 20
258.928272
 30
0.0
 10
38.611011
 20
258.659501
 30
0.0
  0
LWPOLYLINE
  5
177
100
AcDbEntity
  8
Layer_1
 62
7
100
AcDbPolyline
 90
2
 70
0
 10
38.599352
 20
261.169105
 30
0.0
 10
38.599352
 20
261.169105
 30
0.0
  0
SPLINE
  5
178
100
AcDbEntity
  8
Layer_1
 62
7
100
AcDbSpline
 70
8
 71
3
 72
8
 73
4
 74
0
 40
0
 40
0
 40
0
 40
0
 40
1
 40
1
 40
1
 40
1
 10
38.631850
 20
253.630579
 30
0.0
 10
38.663708
 20
253.361807
 30
0.0
 10
38.462943
 20
253.119092
 30
0.0
 10
38.183460
 20
253.088465
 30
0.0
  0
SPLINE
  5
179
100
AcDbEntity
  8
Layer_1
 62
7
100
AcDbSpline
 70
8
 71
3
 72
8
 73
4
 74
0
 40
0
 40
0
 40
0
 40
0
 40
1
 40
1
 40
1
 40
1
 10
38.183460
 20
253.088465
 30
0.0
 10
37.903953
 20
253.057836
 30
0.0
 10
37.651557
 20
253.250892
 30
0.0
 10
37.619699
 20
253.519663
 30
0.0
  0
SPLINE
  5
17a
100
AcDbEntity
  8
Layer_1
 62
7
100
AcDbSpline
 70
8
 71
3
 72
8
 73
4
 74
0
 40
0
 40
0
 40
0
 40
0
 40
1
 40
1
 40
1
 40
1
 10
37.619699
 20
253.519663
 30
0.0
 10
37.587840
 20
253.788435
 30
0.0
 10
37.788582
 20
254.031148
 30
0.0
 10
38.068089
 20
254.061777
 30
0.0
  0
SPLINE
  5
17b
100
AcDbEntity
  8
Layer_1
 62
7
100
AcDbSpline
 70
8
 71
3
 72
8
 73
4
 74
0
 40
0
 40
0
 40
0
 40
0
 40
1
 40
1
 40
1
 40
1
 10
38.068089
 20
254.061777
 30
0.0
 10
38.347572
 20
254.092404
 30
0.0
 10
38.599991
 20
253.899350
 30
0.0
 10
38.631850
 20
253.630579
 30
0.0
  0
LWPOLYLINE
  5
17c
100
AcDbEntity
  8
Layer_1
 62
7
100
AcDbPolyline
 90
2
 70
0
 10
38.611011
 20
258.659501
 30
0.0
 10
38.611011
 20
258.659501
 30
0.0
  0
SPLINE
  5
17d
100
AcDbEntity
  8
Layer_1
 62
7
100
AcDbSpline
 70
8
 71
3
 72
8
 73
4
 74
0
 40
0
 40
0
 40
0
 40
0
 40
1
 40
1
 40
1
 40
1
 10
38.628869
 20
251.150428
 30
0.0
 10
38.660727
 20
250.881657
 30
0.0
 10
38.459961
 20
250.638941
 30
0.0
 10
38.180478
 20
250.608315
 30
0.0
  0
SPLINE
  5
17e
100
AcDbEntity
  8
Layer_1
 62
7
100
AcDbSpline
 70
8
 71
3
 72
8
 73
4
 74
0
 40
0
 40
0
 40
0
 40
0
 40
1
 40
1
 40
1
 40
1
 10
38.180478
 20
250.608315
 30
0.0
 10
37.900971
 20
250.577685
 30
0.0
 10
37.648576
 20
250.770741
 30
0.0
 10
37.616718
 20
251.039513
 30
0.0
  0
SPLINE
  5
17f
100
AcDbEntity
  8
Layer_1
 62
7
100
AcDbSpline
 70
8
 71
3
 72
8
 73
4
 74
0
 40
0
 40
0
 40
0
 40
0
 40
1
 40
1
 40
1
 40
1
 10
37.616718
 20
251.039513
 30
0.0
 10
37.584859
 20
251.308284
 30
0.0
 10
37.785601
 20
251.550997
 30
0.0
 10
38.065108
 20
251.581627
 30
0.0
  0
SPLINE
  5
180
100
AcDbEntity
  8
Layer_1
 62
7
100
AcDbSpline
 70
8
 71
3
 72
8
 73
4
 74
0
 40
0
 40
0
 40
0
 40
0
 40
1
 40
1
 40
1
 40
1
 10
38.065108
 20
251.581627
 30
0.0
 10
38.344591
 20
251.612254
 30
0.0
 10
38.597010
 20
251.419200
 30
0.0
 10
38.628869
 20
251.150428
 30
0.0
  0
LWPOLYLINE
  5
181
100
AcDbEntity
  8
Layer_1
 62
7
100
AcDbPolyline
 90
2
 70
0
 10
38.631850
 20
253.630579
 30
0.0
 10
38.631850
 20
253.630579
 30
0.0
  0
LWPOLYLINE
  5
182
100
AcDbEntity
  8
Layer_1
 62
7
100
AcDbPolyline
 90
2
 70
0
 10
38.628869
 20
251.150428
 30
0.0
 10
38.628869
 20
251.150428
 30
0.0
  0
SPLINE
  5
183
100
AcDbEntity
  8
Layer_1
 62
7
100
AcDbSpline
 70
8
 71
3
 72
8
 73
4
 74
0
 40
0
 40
0
 40
0
 40
0
 40
1
 40
1
 40
1
 40
1
 10
14.581261
 20
268.957068
 30
0.0
 10
16.578610
 20
266.877333
 30
0.0
 10
19.858900
 20
268.110604
 30
0.0
 10
19.858900
 20
268.110604
 30
0.0
  0
SPLINE
  5
184
100
AcDbEntity
  8
Layer_1
 62
7
100
AcDbSpline
 70
8
 71
3
 72
8
 73
4
 74
0
 40
0
 40
0
 40
0
 40
0
 40
1
 40
1
 40
1
 40
1
 10
19.858900
 20
268.110604
 30
0.0
 10
19.858900
 20
268.110604
 30
0.0
 10
21.074664
 20
271.344148
 30
0.0
 10
19.012436
 20
273.388244
 30
0.0
  0
SPLINE
  5
185
100
AcDbEntity
  8
Layer_1
 62
7
100
AcDbSpline
 70
8
 71
3
 72
8
 73
4
 74
0
 40
0
 40
0
 40
0
 40
0
 40
1
 40
1
 40
1
 40
1
 10
19.012436
 20
273.388244
 30
0.0
 10
17.047962
 20
275.335445
 30
0.0
 10
13.886674
 20
274.081400
 30
0.0
 10
13.886674
 20
274.081400
 30
0.0
  0
SPLINE
  5
186
100
AcDbEntity
  8
Layer_1
 62
7
100
AcDbSpline
 70
8
 71
3
 72
8
 73
4
 74
0
 40
0
 40
0
 40
0
 40
0
 40
1
 40
1
 40
1
 40
1
 10
13.886674
 20
274.081400
 30
0.0
 10
13.886674
 20
274.081400
 30
0.0
 10
12.583912
 20
271.036805
 30
0.0
 10
14.581261
 20
268.957068
 30
0.0
  0
LWPOLYLINE
  5
187
100
AcDbEntity
  8
Layer_1
 62
7
100
AcDbPolyline
 90
5
 70
0
 10
-25.221729
 20
286.603929
 30
0.0
 10
-15.221729
 20
286.603929
 30
0.0
 10
-15.221729
 20
276.603929
 30
0.0
 10
-25.221729
 20
276.603929
 30
0.0
 10
-25.221729
 20
286.603929
 30
0.0
  0
SPLINE
  5
188
100
AcDbEntity
  8
Layer_1
 62
7
100
AcDbSpline
 70
8
 71
3
 72
8
 73
4
 74
0
 40
0
 40
0
 40
0
 40
0
 40
1
 40
1
 40
1
 40
1
 10
48.324290
 20
268.957066
 30
0.0
 10
46.326941
 20
266.877333
 30
0.0
 10
43.046650
 20
268.110604
 30
0.0
 10
43.046650
 20
268.110604
 30
0.0
  0
SPLINE
  5
189
100
AcDbEntity
  8
Layer_1
 62
7
100
AcDbSpline
 70
8
 71
3
 72
8
 73
4
 74
0
 40
0
 40
0
 40
0
 40
0
 40
1
 40
1
 40
1
 40
1
 10
43.046650
 20
268.110604
 30
0.0
 10
43.046650
 20
268.110604
 30
0.0
 10
41.830887
 20
271.344148
 30
0.0
 10
43.893116
 20
273.388244
 30
0.0
  0
SPLINE
  5
18a
100
AcDbEntity
  8
Layer_1
 62
7
100
AcDbSpline
 70
8
 71
3
 72
8
 73
4
 74
0
 40
0
 40
0
 40
0
 40
0
 40
1
 40
1
 40
1
 40
1
 10
43.893116
 20
273.388244
 30
0.0
 10
45.857589
 20
275.335445
 30
0.0
 10
49.018876
 20
274.081400
 30
0.0
 10
49.018876
 20
274.081400
 30
0.0
  0
SPLINE
  5
18b
100
AcDbEntity
  8
Layer_1
 62
7
100
AcDbSpline
 70
8
 71
3
 72
8
 73
4
 74
0
 40
0
 40
0
 40
0
 40
0
 40
1
 40
1
 40
1
 40
1
 10
49.018876
 20
274.081400
 30
0.0
 10
49.018876
 20
274.081400
 30
0.0
 10
50.321639
 20
271.036805
 30
0.0
 10
48.324290
 20
268.957066
 30
0.0
  0
LWPOLYLINE
  5
18c
100
AcDbEntity
  8
Layer_1
 62
7
100
AcDbPolyline
 90
2
 70
0
 10
14.581261
 20
268.957068
 30
0.0
 10
14.581261
 20
268.957068
 30
0.0
  0
LWPOLYLINE
  5
18d
100
AcDbEntity
  8
Layer_1
 62
7
100
AcDbPolyline
 90
2
 70
0
 10
48.324290
 20
268.957066
 30
0.0
 10
48.324290
 20
268.957066
 30
0.0
  0
ENDSEC
  0
SECTION
  2
OBJECTS
  0
DICTIONARY
  5
C
330
0
100
AcDbDictionary
  3
ACAD_GROUP
350
D
  3
ACAD_MLINESTYLE
350
17
  0
DICTIONARY
  5
D
330
C
100
AcDbDictionary
  0
DICTIONARY
  5
1A
330
C
100
AcDbDictionary
  0
DICTIONARY
  5
17
330
C
100
AcDbDictionary
  3
STANDARD
350
18
  0
DICTIONARY
  5
19
330
C
100
AcDbDictionary
  0
ENDSEC
  0
EOF
